<svg width="56" height="51" viewBox="0 0 56 51" fill="none" xmlns="http://www.w3.org/2000/svg">
<path d="M6.44238 8.30273C6.10148 9.56358 5.93067 10.9668 5.93066 12.5127C5.93066 16.6243 7.13624 19.7479 9.54785 21.8828C11.999 23.9782 15.4192 25.0254 19.8076 25.0254H41.0381C42.7772 25.0255 44.1015 25.4405 45.0107 26.2705C45.625 26.7824 46.0393 27.5104 46.2559 28.4531V31.9238C46.0393 32.8756 45.625 33.6207 45.0107 34.1582C44.1015 34.9488 42.7773 35.3437 41.0381 35.3438L6.93848 35.2852V42.9941H42.0459C43.5685 42.9941 44.9713 42.8594 46.2559 42.5977V51H0V8.30273H6.44238ZM46.2559 17.7715C48.6738 18.2642 50.6712 19.2177 52.2461 20.6377C54.6969 22.7725 55.9228 25.9547 55.9229 30.1846C55.9229 34.3751 54.6971 37.558 52.2461 39.7324C50.6712 41.1524 48.6737 42.105 46.2559 42.5977V31.9238C46.3738 31.4055 46.4346 30.8258 46.4346 30.1846C46.4346 29.5434 46.3738 28.9665 46.2559 28.4531V17.7715ZM46.2559 17.7715C44.9713 17.5097 43.5684 17.376 42.0459 17.376H20.8154C19.1157 17.376 17.7916 17 16.8428 16.249C15.8939 15.4583 15.4189 14.2127 15.4189 12.5127C15.419 10.8127 15.894 9.58709 16.8428 8.83594C17.0881 8.63156 17.3588 8.45427 17.6543 8.30273H46.2559V17.7715ZM53.1357 7.70898L20.8154 7.65039C19.5552 7.6504 18.5017 7.86816 17.6543 8.30273H6.44238C7.00819 6.21009 8.04298 4.50968 9.54785 3.20215C11.999 1.06726 15.4192 0 19.8076 0H53.1357V7.70898Z" fill="#2B2B2B"/>
</svg>
